<?xml version="1.0" encoding="UTF-8" standalone="no"?>
<!DOCTYPE svg PUBLIC "-//W3C//DTD SVG 1.1//EN" "http://www.w3.org/Graphics/SVG/1.1/DTD/svg11.dtd">
<!-- Generated by Microsoft Visio, SVG Export 20150811-1 (Raspberry Pi Field Unit Metal Frame Parts).svg Aluminum Parts Order -->
<svg xmlns="http://www.w3.org/2000/svg" xmlns:xlink="http://www.w3.org/1999/xlink" xmlns:ev="http://www.w3.org/2001/xml-events"
		xmlns:v="http://schemas.microsoft.com/visio/2003/SVGExtensions/" width="34in" height="44in" viewBox="0 0 2448 3168"
		xml:space="preserve" color-interpolation-filters="sRGB" class="st7">
	<v:documentProperties v:langID="1033" v:viewMarkup="false">
		<v:userDefs>
			<v:ud v:nameU="msvNoAutoConnect" v:val="VT0(1):26"/>
		</v:userDefs>
	</v:documentProperties>

	<style type="text/css">
	<![CDATA[
		.st1 {fill:none;stroke:#000000;stroke-linecap:round;stroke-linejoin:round;stroke-width:0.5}
		.st2 {fill:#ffffff;stroke:#000000;stroke-linecap:round;stroke-linejoin:round;stroke-width:0.5}
		.st3 {fill:none;stroke:#000000;stroke-linecap:round;stroke-linejoin:round;stroke-width:1.5}
		.st4 {fill:none;stroke:#000000;stroke-linecap:round;stroke-linejoin:round;stroke-width:0.25}
		.st5 {fill:none;stroke:#000000;stroke-linecap:round;stroke-linejoin:round;stroke-width:0.24}
		.st6 {fill:none;stroke:#000000;stroke-linecap:round;stroke-linejoin:round;stroke-width:0.75}
		.st7 {fill:none;fill-rule:evenodd;font-size:12px;overflow:visible;stroke-linecap:square;stroke-miterlimit:3}
	]]>
	</style>

	<g v:mID="15" v:index="1" v:groupContext="foregroundPage">
		<title>Aluminum Parts Order</title>
		<v:pageProperties v:drawingScale="1" v:pageScale="1" v:drawingUnits="19" v:shadowOffsetX="9" v:shadowOffsetY="-9"/>
		<g id="group84-1" transform="translate(765.467,-602.672)" v:mID="84" v:groupContext="group">
			<title>Sheet.84</title>
			<g id="shape85-2" v:mID="85" v:groupContext="shape" transform="translate(3293.77,2988) rotate(90)">
				<title>Center Drag Circle.3309</title>
				<v:userDefs>
					<v:ud v:nameU="visVersion" v:val="VT0(15):26"/>
				</v:userDefs>
				<path d="M-9 3168 A9 9 0 0 1 9 3168 A9 9 0 1 1 -9 3168 Z" class="st1"/>
			</g>
			<g id="shape86-4" v:mID="86" v:groupContext="shape" transform="translate(3203.77,2988) rotate(90)">
				<title>Center Drag Circle.3311</title>
				<v:userDefs>
					<v:ud v:nameU="visVersion" v:val="VT0(15):26"/>
				</v:userDefs>
				<path d="M-9 3168 A9 9 0 0 1 9 3168 A9 9 0 1 1 -9 3168 Z" class="st1"/>
			</g>
			<g id="shape87-6" v:mID="87" v:groupContext="shape" transform="translate(3293.77,2898.04) rotate(90)">
				<title>Center Drag Circle.3323</title>
				<v:userDefs>
					<v:ud v:nameU="visVersion" v:val="VT0(15):26"/>
				</v:userDefs>
				<path d="M-4.5 3168 A4.5 4.5 0 0 1 4.5 3168 A4.5 4.5 0 1 1 -4.5 3168 Z" class="st1"/>
			</g>
			<g id="shape88-8" v:mID="88" v:groupContext="shape" transform="translate(3250.29,2897.79) rotate(90)">
				<title>Center Drag Circle.3324</title>
				<v:userDefs>
					<v:ud v:nameU="visVersion" v:val="VT0(15):26"/>
				</v:userDefs>
				<path d="M-4.5 3168 A4.5 4.5 0 0 1 4.5 3168 A4.5 4.5 0 1 1 -4.5 3168 Z" class="st1"/>
			</g>
			<g id="shape89-10" v:mID="89" v:groupContext="shape" transform="translate(3204.54,2898.03) rotate(90)">
				<title>Center Drag Circle.3325</title>
				<v:userDefs>
					<v:ud v:nameU="visVersion" v:val="VT0(15):26"/>
				</v:userDefs>
				<path d="M-4.5 3168 A4.5 4.5 0 0 1 4.5 3168 A4.5 4.5 0 1 1 -4.5 3168 Z" class="st1"/>
			</g>
			<g id="shape90-12" v:mID="90" v:groupContext="shape" transform="translate(-3132,3132) rotate(-90)">
				<title>Center Drag Circle.3326</title>
				<v:userDefs>
					<v:ud v:nameU="visVersion" v:val="VT0(15):26"/>
				</v:userDefs>
				<path d="M-9 3168 A9 9 0 0 1 9 3168 A9 9 0 1 1 -9 3168 Z" class="st1"/>
			</g>
			<g id="shape91-14" v:mID="91" v:groupContext="shape" transform="translate(-3042,3132) rotate(-90)">
				<title>Center Drag Circle.3328</title>
				<v:userDefs>
					<v:ud v:nameU="visVersion" v:val="VT0(15):26"/>
				</v:userDefs>
				<path d="M-9 3168 A9 9 0 0 1 9 3168 A9 9 0 1 1 -9 3168 Z" class="st1"/>
			</g>
			<g id="shape92-16" v:mID="92" v:groupContext="shape">
				<title>Rounded Rectangle.3338</title>
				<v:userDefs>
					<v:ud v:nameU="CTypeTopLeftSnip" v:prompt="" v:val="VT0(0):5"/>
					<v:ud v:nameU="CTypeTopRightSnip" v:prompt="" v:val="VT0(0):5"/>
					<v:ud v:nameU="CTypeBotLeftSnip" v:prompt="" v:val="VT0(0):5"/>
					<v:ud v:nameU="CTypeBotRightSnip" v:prompt="" v:val="VT0(0):5"/>
					<v:ud v:nameU="CornerLockHoriz" v:prompt="" v:val="VT0(1):5"/>
					<v:ud v:nameU="CornerLockVert" v:prompt="" v:val="VT0(1):5"/>
					<v:ud v:nameU="CornerLockDiag" v:prompt="" v:val="VT0(0):5"/>
					<v:ud v:nameU="TopLeftOffset" v:prompt="" v:val="VT0(0.15):1"/>
					<v:ud v:nameU="TopRightOffset" v:prompt="" v:val="VT0(0.15):1"/>
					<v:ud v:nameU="BotLeftOffset" v:prompt="" v:val="VT0(0.15):1"/>
					<v:ud v:nameU="BotRightOffset" v:prompt="" v:val="VT0(0.15):1"/>
					<v:ud v:nameU="visVersion" v:prompt="" v:val="VT0(15):26"/>
					<v:ud v:nameU="TopLeftOffset" v:prompt="" v:val="VT0(0.12211754780711):1"/>
					<v:ud v:nameU="TopRightOffset" v:prompt="" v:val="VT0(0.12211754780711):1"/>
					<v:ud v:nameU="BotLeftOffset" v:prompt="" v:val="VT0(0.12211754780711):1"/>
					<v:ud v:nameU="BotRightOffset" v:prompt="" v:val="VT0(0.12211754780711):1"/>
				</v:userDefs>
				<path d="M8.79 3168 L152.97 3168 A8.79232 8.79232 -180 0 0 161.77 3159.21 L161.77 2851.35 A8.79232 8.79232 -180 0
							 0 152.97 2842.56 L8.79 2842.56 A8.79232 8.79232 -180 0 0 0 2851.35 L0 3159.21 A8.79232 8.79232 -180
							 0 0 8.79 3168 Z" class="st1"/>
			</g>
		</g>
		<g id="group93-18" transform="translate(954.233,-602.672)" v:mID="93" v:groupContext="group">
			<title>Sheet.93</title>
			<g id="shape94-19" v:mID="94" v:groupContext="shape" transform="translate(3293.77,2988) rotate(90)">
				<title>Center Drag Circle.3309</title>
				<v:userDefs>
					<v:ud v:nameU="visVersion" v:val="VT0(15):26"/>
				</v:userDefs>
				<path d="M-9 3168 A9 9 0 0 1 9 3168 A9 9 0 1 1 -9 3168 Z" class="st1"/>
			</g>
			<g id="shape95-21" v:mID="95" v:groupContext="shape" transform="translate(3203.77,2988) rotate(90)">
				<title>Center Drag Circle.3311</title>
				<v:userDefs>
					<v:ud v:nameU="visVersion" v:val="VT0(15):26"/>
				</v:userDefs>
				<path d="M-9 3168 A9 9 0 0 1 9 3168 A9 9 0 1 1 -9 3168 Z" class="st1"/>
			</g>
			<g id="shape96-23" v:mID="96" v:groupContext="shape" transform="translate(3293.77,2898.04) rotate(90)">
				<title>Center Drag Circle.3323</title>
				<v:userDefs>
					<v:ud v:nameU="visVersion" v:val="VT0(15):26"/>
				</v:userDefs>
				<path d="M-4.5 3168 A4.5 4.5 0 0 1 4.5 3168 A4.5 4.5 0 1 1 -4.5 3168 Z" class="st1"/>
			</g>
			<g id="shape97-25" v:mID="97" v:groupContext="shape" transform="translate(3250.29,2897.79) rotate(90)">
				<title>Center Drag Circle.3324</title>
				<v:userDefs>
					<v:ud v:nameU="visVersion" v:val="VT0(15):26"/>
				</v:userDefs>
				<path d="M-4.5 3168 A4.5 4.5 0 0 1 4.5 3168 A4.5 4.5 0 1 1 -4.5 3168 Z" class="st1"/>
			</g>
			<g id="shape98-27" v:mID="98" v:groupContext="shape" transform="translate(3204.54,2898.03) rotate(90)">
				<title>Center Drag Circle.3325</title>
				<v:userDefs>
					<v:ud v:nameU="visVersion" v:val="VT0(15):26"/>
				</v:userDefs>
				<path d="M-4.5 3168 A4.5 4.5 0 0 1 4.5 3168 A4.5 4.5 0 1 1 -4.5 3168 Z" class="st1"/>
			</g>
			<g id="shape99-29" v:mID="99" v:groupContext="shape" transform="translate(-3132,3132) rotate(-90)">
				<title>Center Drag Circle.3326</title>
				<v:userDefs>
					<v:ud v:nameU="visVersion" v:val="VT0(15):26"/>
				</v:userDefs>
				<path d="M-9 3168 A9 9 0 0 1 9 3168 A9 9 0 1 1 -9 3168 Z" class="st1"/>
			</g>
			<g id="shape100-31" v:mID="100" v:groupContext="shape" transform="translate(-3042,3132) rotate(-90)">
				<title>Center Drag Circle.3328</title>
				<v:userDefs>
					<v:ud v:nameU="visVersion" v:val="VT0(15):26"/>
				</v:userDefs>
				<path d="M-9 3168 A9 9 0 0 1 9 3168 A9 9 0 1 1 -9 3168 Z" class="st1"/>
			</g>
			<g id="shape101-33" v:mID="101" v:groupContext="shape">
				<title>Rounded Rectangle.3338</title>
				<v:userDefs>
					<v:ud v:nameU="CTypeTopLeftSnip" v:prompt="" v:val="VT0(0):5"/>
					<v:ud v:nameU="CTypeTopRightSnip" v:prompt="" v:val="VT0(0):5"/>
					<v:ud v:nameU="CTypeBotLeftSnip" v:prompt="" v:val="VT0(0):5"/>
					<v:ud v:nameU="CTypeBotRightSnip" v:prompt="" v:val="VT0(0):5"/>
					<v:ud v:nameU="CornerLockHoriz" v:prompt="" v:val="VT0(1):5"/>
					<v:ud v:nameU="CornerLockVert" v:prompt="" v:val="VT0(1):5"/>
					<v:ud v:nameU="CornerLockDiag" v:prompt="" v:val="VT0(0):5"/>
					<v:ud v:nameU="TopLeftOffset" v:prompt="" v:val="VT0(0.15):1"/>
					<v:ud v:nameU="TopRightOffset" v:prompt="" v:val="VT0(0.15):1"/>
					<v:ud v:nameU="BotLeftOffset" v:prompt="" v:val="VT0(0.15):1"/>
					<v:ud v:nameU="BotRightOffset" v:prompt="" v:val="VT0(0.15):1"/>
					<v:ud v:nameU="visVersion" v:prompt="" v:val="VT0(15):26"/>
					<v:ud v:nameU="TopLeftOffset" v:prompt="" v:val="VT0(0.12211754780711):1"/>
					<v:ud v:nameU="TopRightOffset" v:prompt="" v:val="VT0(0.12211754780711):1"/>
					<v:ud v:nameU="BotLeftOffset" v:prompt="" v:val="VT0(0.12211754780711):1"/>
					<v:ud v:nameU="BotRightOffset" v:prompt="" v:val="VT0(0.12211754780711):1"/>
				</v:userDefs>
				<path d="M8.79 3168 L152.97 3168 A8.79232 8.79232 -180 0 0 161.77 3159.21 L161.77 2851.35 A8.79232 8.79232 -180 0
							 0 152.97 2842.56 L8.79 2842.56 A8.79232 8.79232 -180 0 0 0 2851.35 L0 3159.21 A8.79232 8.79232 -180
							 0 0 8.79 3168 Z" class="st1"/>
			</g>
		</g>
		<g id="group102-35" transform="translate(765.467,-250.23)" v:mID="102" v:groupContext="group">
			<title>Sheet.102</title>
			<g id="shape103-36" v:mID="103" v:groupContext="shape" transform="translate(3293.77,2988) rotate(90)">
				<title>Center Drag Circle.3309</title>
				<v:userDefs>
					<v:ud v:nameU="visVersion" v:val="VT0(15):26"/>
				</v:userDefs>
				<path d="M-9 3168 A9 9 0 0 1 9 3168 A9 9 0 1 1 -9 3168 Z" class="st1"/>
			</g>
			<g id="shape104-38" v:mID="104" v:groupContext="shape" transform="translate(3203.77,2988) rotate(90)">
				<title>Center Drag Circle.3311</title>
				<v:userDefs>
					<v:ud v:nameU="visVersion" v:val="VT0(15):26"/>
				</v:userDefs>
				<path d="M-9 3168 A9 9 0 0 1 9 3168 A9 9 0 1 1 -9 3168 Z" class="st1"/>
			</g>
			<g id="shape105-40" v:mID="105" v:groupContext="shape" transform="translate(3293.77,2898.04) rotate(90)">
				<title>Center Drag Circle.3323</title>
				<v:userDefs>
					<v:ud v:nameU="visVersion" v:val="VT0(15):26"/>
				</v:userDefs>
				<path d="M-4.5 3168 A4.5 4.5 0 0 1 4.5 3168 A4.5 4.5 0 1 1 -4.5 3168 Z" class="st1"/>
			</g>
			<g id="shape106-42" v:mID="106" v:groupContext="shape" transform="translate(3250.29,2897.79) rotate(90)">
				<title>Center Drag Circle.3324</title>
				<v:userDefs>
					<v:ud v:nameU="visVersion" v:val="VT0(15):26"/>
				</v:userDefs>
				<path d="M-4.5 3168 A4.5 4.5 0 0 1 4.5 3168 A4.5 4.5 0 1 1 -4.5 3168 Z" class="st1"/>
			</g>
			<g id="shape107-44" v:mID="107" v:groupContext="shape" transform="translate(3204.54,2898.03) rotate(90)">
				<title>Center Drag Circle.3325</title>
				<v:userDefs>
					<v:ud v:nameU="visVersion" v:val="VT0(15):26"/>
				</v:userDefs>
				<path d="M-4.5 3168 A4.5 4.5 0 0 1 4.5 3168 A4.5 4.5 0 1 1 -4.5 3168 Z" class="st1"/>
			</g>
			<g id="shape108-46" v:mID="108" v:groupContext="shape" transform="translate(-3132,3132) rotate(-90)">
				<title>Center Drag Circle.3326</title>
				<v:userDefs>
					<v:ud v:nameU="visVersion" v:val="VT0(15):26"/>
				</v:userDefs>
				<path d="M-9 3168 A9 9 0 0 1 9 3168 A9 9 0 1 1 -9 3168 Z" class="st1"/>
			</g>
			<g id="shape109-48" v:mID="109" v:groupContext="shape" transform="translate(-3042,3132) rotate(-90)">
				<title>Center Drag Circle.3328</title>
				<v:userDefs>
					<v:ud v:nameU="visVersion" v:val="VT0(15):26"/>
				</v:userDefs>
				<path d="M-9 3168 A9 9 0 0 1 9 3168 A9 9 0 1 1 -9 3168 Z" class="st1"/>
			</g>
			<g id="shape110-50" v:mID="110" v:groupContext="shape">
				<title>Rounded Rectangle.3338</title>
				<v:userDefs>
					<v:ud v:nameU="CTypeTopLeftSnip" v:prompt="" v:val="VT0(0):5"/>
					<v:ud v:nameU="CTypeTopRightSnip" v:prompt="" v:val="VT0(0):5"/>
					<v:ud v:nameU="CTypeBotLeftSnip" v:prompt="" v:val="VT0(0):5"/>
					<v:ud v:nameU="CTypeBotRightSnip" v:prompt="" v:val="VT0(0):5"/>
					<v:ud v:nameU="CornerLockHoriz" v:prompt="" v:val="VT0(1):5"/>
					<v:ud v:nameU="CornerLockVert" v:prompt="" v:val="VT0(1):5"/>
					<v:ud v:nameU="CornerLockDiag" v:prompt="" v:val="VT0(0):5"/>
					<v:ud v:nameU="TopLeftOffset" v:prompt="" v:val="VT0(0.15):1"/>
					<v:ud v:nameU="TopRightOffset" v:prompt="" v:val="VT0(0.15):1"/>
					<v:ud v:nameU="BotLeftOffset" v:prompt="" v:val="VT0(0.15):1"/>
					<v:ud v:nameU="BotRightOffset" v:prompt="" v:val="VT0(0.15):1"/>
					<v:ud v:nameU="visVersion" v:prompt="" v:val="VT0(15):26"/>
					<v:ud v:nameU="TopLeftOffset" v:prompt="" v:val="VT0(0.12211754780711):1"/>
					<v:ud v:nameU="TopRightOffset" v:prompt="" v:val="VT0(0.12211754780711):1"/>
					<v:ud v:nameU="BotLeftOffset" v:prompt="" v:val="VT0(0.12211754780711):1"/>
					<v:ud v:nameU="BotRightOffset" v:prompt="" v:val="VT0(0.12211754780711):1"/>
				</v:userDefs>
				<path d="M8.79 3168 L152.97 3168 A8.79232 8.79232 -180 0 0 161.77 3159.21 L161.77 2851.35 A8.79232 8.79232 -180 0
							 0 152.97 2842.56 L8.79 2842.56 A8.79232 8.79232 -180 0 0 0 2851.35 L0 3159.21 A8.79232 8.79232 -180
							 0 0 8.79 3168 Z" class="st1"/>
			</g>
		</g>
		<g id="group111-52" transform="translate(954.233,-250.23)" v:mID="111" v:groupContext="group">
			<title>Sheet.111</title>
			<g id="shape112-53" v:mID="112" v:groupContext="shape" transform="translate(3293.77,2988) rotate(90)">
				<title>Center Drag Circle.3309</title>
				<v:userDefs>
					<v:ud v:nameU="visVersion" v:val="VT0(15):26"/>
				</v:userDefs>
				<path d="M-9 3168 A9 9 0 0 1 9 3168 A9 9 0 1 1 -9 3168 Z" class="st1"/>
			</g>
			<g id="shape113-55" v:mID="113" v:groupContext="shape" transform="translate(3203.77,2988) rotate(90)">
				<title>Center Drag Circle.3311</title>
				<v:userDefs>
					<v:ud v:nameU="visVersion" v:val="VT0(15):26"/>
				</v:userDefs>
				<path d="M-9 3168 A9 9 0 0 1 9 3168 A9 9 0 1 1 -9 3168 Z" class="st1"/>
			</g>
			<g id="shape114-57" v:mID="114" v:groupContext="shape" transform="translate(3293.77,2898.04) rotate(90)">
				<title>Center Drag Circle.3323</title>
				<v:userDefs>
					<v:ud v:nameU="visVersion" v:val="VT0(15):26"/>
				</v:userDefs>
				<path d="M-4.5 3168 A4.5 4.5 0 0 1 4.5 3168 A4.5 4.5 0 1 1 -4.5 3168 Z" class="st1"/>
			</g>
			<g id="shape115-59" v:mID="115" v:groupContext="shape" transform="translate(3250.29,2897.79) rotate(90)">
				<title>Center Drag Circle.3324</title>
				<v:userDefs>
					<v:ud v:nameU="visVersion" v:val="VT0(15):26"/>
				</v:userDefs>
				<path d="M-4.5 3168 A4.5 4.5 0 0 1 4.5 3168 A4.5 4.5 0 1 1 -4.5 3168 Z" class="st1"/>
			</g>
			<g id="shape116-61" v:mID="116" v:groupContext="shape" transform="translate(3204.54,2898.03) rotate(90)">
				<title>Center Drag Circle.3325</title>
				<v:userDefs>
					<v:ud v:nameU="visVersion" v:val="VT0(15):26"/>
				</v:userDefs>
				<path d="M-4.5 3168 A4.5 4.5 0 0 1 4.5 3168 A4.5 4.5 0 1 1 -4.5 3168 Z" class="st1"/>
			</g>
			<g id="shape117-63" v:mID="117" v:groupContext="shape" transform="translate(-3132,3132) rotate(-90)">
				<title>Center Drag Circle.3326</title>
				<v:userDefs>
					<v:ud v:nameU="visVersion" v:val="VT0(15):26"/>
				</v:userDefs>
				<path d="M-9 3168 A9 9 0 0 1 9 3168 A9 9 0 1 1 -9 3168 Z" class="st1"/>
			</g>
			<g id="shape118-65" v:mID="118" v:groupContext="shape" transform="translate(-3042,3132) rotate(-90)">
				<title>Center Drag Circle.3328</title>
				<v:userDefs>
					<v:ud v:nameU="visVersion" v:val="VT0(15):26"/>
				</v:userDefs>
				<path d="M-9 3168 A9 9 0 0 1 9 3168 A9 9 0 1 1 -9 3168 Z" class="st1"/>
			</g>
			<g id="shape119-67" v:mID="119" v:groupContext="shape">
				<title>Rounded Rectangle.3338</title>
				<v:userDefs>
					<v:ud v:nameU="CTypeTopLeftSnip" v:prompt="" v:val="VT0(0):5"/>
					<v:ud v:nameU="CTypeTopRightSnip" v:prompt="" v:val="VT0(0):5"/>
					<v:ud v:nameU="CTypeBotLeftSnip" v:prompt="" v:val="VT0(0):5"/>
					<v:ud v:nameU="CTypeBotRightSnip" v:prompt="" v:val="VT0(0):5"/>
					<v:ud v:nameU="CornerLockHoriz" v:prompt="" v:val="VT0(1):5"/>
					<v:ud v:nameU="CornerLockVert" v:prompt="" v:val="VT0(1):5"/>
					<v:ud v:nameU="CornerLockDiag" v:prompt="" v:val="VT0(0):5"/>
					<v:ud v:nameU="TopLeftOffset" v:prompt="" v:val="VT0(0.15):1"/>
					<v:ud v:nameU="TopRightOffset" v:prompt="" v:val="VT0(0.15):1"/>
					<v:ud v:nameU="BotLeftOffset" v:prompt="" v:val="VT0(0.15):1"/>
					<v:ud v:nameU="BotRightOffset" v:prompt="" v:val="VT0(0.15):1"/>
					<v:ud v:nameU="visVersion" v:prompt="" v:val="VT0(15):26"/>
					<v:ud v:nameU="TopLeftOffset" v:prompt="" v:val="VT0(0.12211754780711):1"/>
					<v:ud v:nameU="TopRightOffset" v:prompt="" v:val="VT0(0.12211754780711):1"/>
					<v:ud v:nameU="BotLeftOffset" v:prompt="" v:val="VT0(0.12211754780711):1"/>
					<v:ud v:nameU="BotRightOffset" v:prompt="" v:val="VT0(0.12211754780711):1"/>
				</v:userDefs>
				<path d="M8.79 3168 L152.97 3168 A8.79232 8.79232 -180 0 0 161.77 3159.21 L161.77 2851.35 A8.79232 8.79232 -180 0
							 0 152.97 2842.56 L8.79 2842.56 A8.79232 8.79232 -180 0 0 0 2851.35 L0 3159.21 A8.79232 8.79232 -180
							 0 0 8.79 3168 Z" class="st1"/>
			</g>
		</g>
		<g id="group120-69" transform="translate(-2077.09,3106.54) rotate(-90)" v:mID="120" v:groupContext="group">
			<title>Sheet.120</title>
			<g id="shape121-70" v:mID="121" v:groupContext="shape" transform="translate(3293.77,2988) rotate(90)">
				<title>Center Drag Circle.3309</title>
				<v:userDefs>
					<v:ud v:nameU="visVersion" v:val="VT0(15):26"/>
				</v:userDefs>
				<path d="M-9 3168 A9 9 0 0 1 9 3168 A9 9 0 1 1 -9 3168 Z" class="st1"/>
			</g>
			<g id="shape122-72" v:mID="122" v:groupContext="shape" transform="translate(3203.77,2988) rotate(90)">
				<title>Center Drag Circle.3311</title>
				<v:userDefs>
					<v:ud v:nameU="visVersion" v:val="VT0(15):26"/>
				</v:userDefs>
				<path d="M-9 3168 A9 9 0 0 1 9 3168 A9 9 0 1 1 -9 3168 Z" class="st1"/>
			</g>
			<g id="shape123-74" v:mID="123" v:groupContext="shape" transform="translate(3293.77,2898.04) rotate(90)">
				<title>Center Drag Circle.3323</title>
				<v:userDefs>
					<v:ud v:nameU="visVersion" v:val="VT0(15):26"/>
				</v:userDefs>
				<path d="M-4.5 3168 A4.5 4.5 0 0 1 4.5 3168 A4.5 4.5 0 1 1 -4.5 3168 Z" class="st1"/>
			</g>
			<g id="shape124-76" v:mID="124" v:groupContext="shape" transform="translate(3250.29,2897.79) rotate(90)">
				<title>Center Drag Circle.3324</title>
				<v:userDefs>
					<v:ud v:nameU="visVersion" v:val="VT0(15):26"/>
				</v:userDefs>
				<path d="M-4.5 3168 A4.5 4.5 0 0 1 4.5 3168 A4.5 4.5 0 1 1 -4.5 3168 Z" class="st1"/>
			</g>
			<g id="shape125-78" v:mID="125" v:groupContext="shape" transform="translate(3204.54,2898.03) rotate(90)">
				<title>Center Drag Circle.3325</title>
				<v:userDefs>
					<v:ud v:nameU="visVersion" v:val="VT0(15):26"/>
				</v:userDefs>
				<path d="M-4.5 3168 A4.5 4.5 0 0 1 4.5 3168 A4.5 4.5 0 1 1 -4.5 3168 Z" class="st1"/>
			</g>
			<g id="shape126-80" v:mID="126" v:groupContext="shape" transform="translate(-3132,3132) rotate(-90)">
				<title>Center Drag Circle.3326</title>
				<v:userDefs>
					<v:ud v:nameU="visVersion" v:val="VT0(15):26"/>
				</v:userDefs>
				<path d="M-9 3168 A9 9 0 0 1 9 3168 A9 9 0 1 1 -9 3168 Z" class="st1"/>
			</g>
			<g id="shape127-82" v:mID="127" v:groupContext="shape" transform="translate(-3042,3132) rotate(-90)">
				<title>Center Drag Circle.3328</title>
				<v:userDefs>
					<v:ud v:nameU="visVersion" v:val="VT0(15):26"/>
				</v:userDefs>
				<path d="M-9 3168 A9 9 0 0 1 9 3168 A9 9 0 1 1 -9 3168 Z" class="st1"/>
			</g>
			<g id="shape128-84" v:mID="128" v:groupContext="shape">
				<title>Rounded Rectangle.3338</title>
				<v:userDefs>
					<v:ud v:nameU="CTypeTopLeftSnip" v:prompt="" v:val="VT0(0):5"/>
					<v:ud v:nameU="CTypeTopRightSnip" v:prompt="" v:val="VT0(0):5"/>
					<v:ud v:nameU="CTypeBotLeftSnip" v:prompt="" v:val="VT0(0):5"/>
					<v:ud v:nameU="CTypeBotRightSnip" v:prompt="" v:val="VT0(0):5"/>
					<v:ud v:nameU="CornerLockHoriz" v:prompt="" v:val="VT0(1):5"/>
					<v:ud v:nameU="CornerLockVert" v:prompt="" v:val="VT0(1):5"/>
					<v:ud v:nameU="CornerLockDiag" v:prompt="" v:val="VT0(0):5"/>
					<v:ud v:nameU="TopLeftOffset" v:prompt="" v:val="VT0(0.15):1"/>
					<v:ud v:nameU="TopRightOffset" v:prompt="" v:val="VT0(0.15):1"/>
					<v:ud v:nameU="BotLeftOffset" v:prompt="" v:val="VT0(0.15):1"/>
					<v:ud v:nameU="BotRightOffset" v:prompt="" v:val="VT0(0.15):1"/>
					<v:ud v:nameU="visVersion" v:prompt="" v:val="VT0(15):26"/>
					<v:ud v:nameU="TopLeftOffset" v:prompt="" v:val="VT0(0.12211754780711):1"/>
					<v:ud v:nameU="TopRightOffset" v:prompt="" v:val="VT0(0.12211754780711):1"/>
					<v:ud v:nameU="BotLeftOffset" v:prompt="" v:val="VT0(0.12211754780711):1"/>
					<v:ud v:nameU="BotRightOffset" v:prompt="" v:val="VT0(0.12211754780711):1"/>
				</v:userDefs>
				<path d="M8.79 3168 L152.97 3168 A8.79232 8.79232 -180 0 0 161.77 3159.21 L161.77 2851.35 A8.79232 8.79232 -180 0
							 0 152.97 2842.56 L8.79 2842.56 A8.79232 8.79232 -180 0 0 0 2851.35 L0 3159.21 A8.79232 8.79232 -180
							 0 0 8.79 3168 Z" class="st1"/>
			</g>
		</g>
		<g id="group241-86" transform="translate(0,-71.5883)" v:mID="241" v:groupContext="group">
			<title>Sheet.241</title>
			<g id="shape242-87" v:mID="242" v:groupContext="shape" transform="translate(3352.67,2910.37) rotate(90)">
				<title>Center Drag Circle.4468</title>
				<v:userDefs>
					<v:ud v:nameU="visVersion" v:val="VT0(15):26"/>
				</v:userDefs>
				<path d="M-9 3168 A9 9 0 0 1 9 3168 A9 9 0 1 1 -9 3168 Z" class="st1"/>
			</g>
			<g id="shape243-89" v:mID="243" v:groupContext="shape" transform="translate(3352.67,3063.4) rotate(90)">
				<title>Center Drag Circle.4469</title>
				<v:userDefs>
					<v:ud v:nameU="visVersion" v:val="VT0(15):26"/>
				</v:userDefs>
				<path d="M-9 3168 A9 9 0 0 1 9 3168 A9 9 0 1 1 -9 3168 Z" class="st1"/>
			</g>
			<g id="shape244-91" v:mID="244" v:groupContext="shape" transform="translate(-2614.29,2910.16) rotate(-90) scale(-1,1)">
				<title>Center Drag Circle.4470</title>
				<v:userDefs>
					<v:ud v:nameU="visVersion" v:val="VT0(15):26"/>
				</v:userDefs>
				<path d="M-9 3168 A9 9 0 0 1 9 3168 A9 9 0 1 1 -9 3168 Z" class="st1"/>
			</g>
			<g id="shape245-93" v:mID="245" v:groupContext="shape" transform="translate(-2614.29,3063.19) rotate(-90) scale(-1,1)">
				<title>Center Drag Circle.4471</title>
				<v:userDefs>
					<v:ud v:nameU="visVersion" v:val="VT0(15):26"/>
				</v:userDefs>
				<path d="M-9 3168 A9 9 0 0 1 9 3168 A9 9 0 1 1 -9 3168 Z" class="st1"/>
			</g>
			<g id="shape246-95" v:mID="246" v:groupContext="shape" transform="translate(3347.75,2515.88) rotate(90)">
				<title>Center Drag Circle.4480</title>
				<v:userDefs>
					<v:ud v:nameU="visVersion" v:val="VT0(15):26"/>
				</v:userDefs>
				<path d="M-9 3168 A9 9 0 0 1 9 3168 A9 9 0 1 1 -9 3168 Z" class="st1"/>
			</g>
			<g id="shape247-97" v:mID="247" v:groupContext="shape" transform="translate(3257.75,2515.88) rotate(90)">
				<title>Center Drag Circle.4482</title>
				<v:userDefs>
					<v:ud v:nameU="visVersion" v:val="VT0(15):26"/>
				</v:userDefs>
				<path d="M-9 3168 A9 9 0 0 1 9 3168 A9 9 0 1 1 -9 3168 Z" class="st1"/>
			</g>
			<g id="shape248-99" v:mID="248" v:groupContext="shape" transform="translate(3816.39,2515.88) rotate(90)">
				<title>Center Drag Circle.4493</title>
				<v:userDefs>
					<v:ud v:nameU="visVersion" v:val="VT0(15):26"/>
				</v:userDefs>
				<path d="M-9 3168 A9 9 0 0 1 9 3168 A9 9 0 1 1 -9 3168 Z" class="st1"/>
			</g>
			<g id="shape249-101" v:mID="249" v:groupContext="shape" transform="translate(3726.39,2515.88) rotate(90)">
				<title>Center Drag Circle.4495</title>
				<v:userDefs>
					<v:ud v:nameU="visVersion" v:val="VT0(15):26"/>
				</v:userDefs>
				<path d="M-9 3168 A9 9 0 0 1 9 3168 A9 9 0 1 1 -9 3168 Z" class="st1"/>
			</g>
			<g id="shape250-103" v:mID="250" v:groupContext="shape" transform="translate(3347.68,2278.13) rotate(90)">
				<title>Center Drag Circle.4507</title>
				<v:userDefs>
					<v:ud v:nameU="visVersion" v:val="VT0(15):26"/>
				</v:userDefs>
				<path d="M-9 3168 A9 9 0 0 1 9 3168 A9 9 0 1 1 -9 3168 Z" class="st1"/>
			</g>
			<g id="shape251-105" v:mID="251" v:groupContext="shape" transform="translate(3257.68,2278.13) rotate(90)">
				<title>Center Drag Circle.4509</title>
				<v:userDefs>
					<v:ud v:nameU="visVersion" v:val="VT0(15):26"/>
				</v:userDefs>
				<path d="M-9 3168 A9 9 0 0 1 9 3168 A9 9 0 1 1 -9 3168 Z" class="st1"/>
			</g>
			<g id="shape252-107" v:mID="252" v:groupContext="shape" transform="translate(3816.39,2278.13) rotate(90)">
				<title>Center Drag Circle.4520</title>
				<v:userDefs>
					<v:ud v:nameU="visVersion" v:val="VT0(15):26"/>
				</v:userDefs>
				<path d="M-9 3168 A9 9 0 0 1 9 3168 A9 9 0 1 1 -9 3168 Z" class="st1"/>
			</g>
			<g id="shape253-109" v:mID="253" v:groupContext="shape" transform="translate(3726.39,2278.13) rotate(90)">
				<title>Center Drag Circle.4522</title>
				<v:userDefs>
					<v:ud v:nameU="visVersion" v:val="VT0(15):26"/>
				</v:userDefs>
				<path d="M-9 3168 A9 9 0 0 1 9 3168 A9 9 0 1 1 -9 3168 Z" class="st1"/>
			</g>
			<g id="shape254-111" v:mID="254" v:groupContext="shape" transform="translate(3347.54,3131.78) rotate(90)">
				<title>Center Drag Circle.4534</title>
				<v:userDefs>
					<v:ud v:nameU="visVersion" v:val="VT0(15):26"/>
				</v:userDefs>
				<path d="M-9 3168 A9 9 0 0 1 9 3168 A9 9 0 1 1 -9 3168 Z" class="st1"/>
			</g>
			<g id="shape255-113" v:mID="255" v:groupContext="shape" transform="translate(3257.54,3131.77) rotate(90)">
				<title>Center Drag Circle.4536</title>
				<v:userDefs>
					<v:ud v:nameU="visVersion" v:val="VT0(15):26"/>
				</v:userDefs>
				<path d="M-9 3168 A9 9 0 0 1 9 3168 A9 9 0 1 1 -9 3168 Z" class="st1"/>
			</g>
			<g id="shape256-115" v:mID="256" v:groupContext="shape" transform="translate(3816.18,3131.78) rotate(90)">
				<title>Center Drag Circle.4547</title>
				<v:userDefs>
					<v:ud v:nameU="visVersion" v:val="VT0(15):26"/>
				</v:userDefs>
				<path d="M-9 3168 A9 9 0 0 1 9 3168 A9 9 0 1 1 -9 3168 Z" class="st1"/>
			</g>
			<g id="shape257-117" v:mID="257" v:groupContext="shape" transform="translate(3726.18,3131.77) rotate(90)">
				<title>Center Drag Circle.4549</title>
				<v:userDefs>
					<v:ud v:nameU="visVersion" v:val="VT0(15):26"/>
				</v:userDefs>
				<path d="M-9 3168 A9 9 0 0 1 9 3168 A9 9 0 1 1 -9 3168 Z" class="st1"/>
			</g>
			<g id="shape258-119" v:mID="258" v:groupContext="shape" transform="translate(89.7871,-561.71)">
				<title>Center Drag Circle.4562</title>
				<v:userDefs>
					<v:ud v:nameU="visVersion" v:val="VT0(15):26"/>
				</v:userDefs>
				<path d="M-9 3168 A9 9 0 0 1 9 3168 A9 9 0 1 1 -9 3168 Z" class="st1"/>
			</g>
			<g id="shape259-121" v:mID="259" v:groupContext="shape" transform="translate(3347.75,2606.63) rotate(90)">
				<title>Center Drag Circle.4573</title>
				<v:userDefs>
					<v:ud v:nameU="visVersion" v:val="VT0(15):26"/>
				</v:userDefs>
				<path d="M-9 3168 A9 9 0 0 1 9 3168 A9 9 0 1 1 -9 3168 Z" class="st1"/>
			</g>
			<g id="shape260-123" v:mID="260" v:groupContext="shape" transform="translate(3816.39,2606.63) rotate(90)">
				<title>Center Drag Circle.4587</title>
				<v:userDefs>
					<v:ud v:nameU="visVersion" v:val="VT0(15):26"/>
				</v:userDefs>
				<path d="M-9 3168 A9 9 0 0 1 9 3168 A9 9 0 1 1 -9 3168 Z" class="st1"/>
			</g>
			<g id="shape261-125" v:mID="261" v:groupContext="shape" transform="translate(3726.39,2606.62) rotate(90)">
				<title>Center Drag Circle.4589</title>
				<v:userDefs>
					<v:ud v:nameU="visVersion" v:val="VT0(15):26"/>
				</v:userDefs>
				<path d="M-9 3168 A9 9 0 0 1 9 3168 A9 9 0 1 1 -9 3168 Z" class="st1"/>
			</g>
			<g id="shape262-127" v:mID="262" v:groupContext="shape" transform="translate(3581.46,2515.88) rotate(90)">
				<title>Center Drag Circle.4600</title>
				<v:userDefs>
					<v:ud v:nameU="visVersion" v:val="VT0(15):26"/>
				</v:userDefs>
				<path d="M-9 3168 A9 9 0 0 1 9 3168 A9 9 0 1 1 -9 3168 Z" class="st1"/>
			</g>
			<g id="shape263-129" v:mID="263" v:groupContext="shape" transform="translate(3491.46,2515.88) rotate(90)">
				<title>Center Drag Circle.4602</title>
				<v:userDefs>
					<v:ud v:nameU="visVersion" v:val="VT0(15):26"/>
				</v:userDefs>
				<path d="M-9 3168 A9 9 0 0 1 9 3168 A9 9 0 1 1 -9 3168 Z" class="st1"/>
			</g>
			<g id="shape264-131" v:mID="264" v:groupContext="shape" transform="translate(323.5,-561.71)">
				<title>Center Drag Circle.4615</title>
				<v:userDefs>
					<v:ud v:nameU="visVersion" v:val="VT0(15):26"/>
				</v:userDefs>
				<path d="M-9 3168 A9 9 0 0 1 9 3168 A9 9 0 1 1 -9 3168 Z" class="st1"/>
			</g>
			<g id="shape265-133" v:mID="265" v:groupContext="shape" transform="translate(3581.46,2606.63) rotate(90)">
				<title>Center Drag Circle.4626</title>
				<v:userDefs>
					<v:ud v:nameU="visVersion" v:val="VT0(15):26"/>
				</v:userDefs>
				<path d="M-9 3168 A9 9 0 0 1 9 3168 A9 9 0 1 1 -9 3168 Z" class="st1"/>
			</g>
			<g id="shape266-135" v:mID="266" v:groupContext="shape" transform="translate(3581.53,2986.13) rotate(90)">
				<title>Center Drag Circle.4639</title>
				<v:userDefs>
					<v:ud v:nameU="visVersion" v:val="VT0(15):26"/>
				</v:userDefs>
				<path d="M-9 3168 A9 9 0 0 1 9 3168 A9 9 0 1 1 -9 3168 Z" class="st1"/>
			</g>
			<g id="shape267-137" v:mID="267" v:groupContext="shape" transform="translate(3491.53,2986.13) rotate(90)">
				<title>Center Drag Circle.4641</title>
				<v:userDefs>
					<v:ud v:nameU="visVersion" v:val="VT0(15):26"/>
				</v:userDefs>
				<path d="M-9 3168 A9 9 0 0 1 9 3168 A9 9 0 1 1 -9 3168 Z" class="st1"/>
			</g>
			<g id="shape268-139" v:mID="268" v:groupContext="shape" transform="translate(323.57,-91.4599)">
				<title>Center Drag Circle.4654</title>
				<v:userDefs>
					<v:ud v:nameU="visVersion" v:val="VT0(15):26"/>
				</v:userDefs>
				<path d="M-9 3168 A9 9 0 0 1 9 3168 A9 9 0 1 1 -9 3168 Z" class="st1"/>
			</g>
			<g id="shape269-141" v:mID="269" v:groupContext="shape" transform="translate(3581.53,3076.88) rotate(90)">
				<title>Center Drag Circle.4665</title>
				<v:userDefs>
					<v:ud v:nameU="visVersion" v:val="VT0(15):26"/>
				</v:userDefs>
				<path d="M-9 3168 A9 9 0 0 1 9 3168 A9 9 0 1 1 -9 3168 Z" class="st1"/>
			</g>
			<g id="shape270-143" v:mID="270" v:groupContext="shape" transform="translate(3581.68,2751.23) rotate(90)">
				<title>Center Drag Circle.4679</title>
				<v:userDefs>
					<v:ud v:nameU="visVersion" v:val="VT0(15):26"/>
				</v:userDefs>
				<path d="M-9 3168 A9 9 0 0 1 9 3168 A9 9 0 1 1 -9 3168 Z" class="st1"/>
			</g>
			<g id="shape271-145" v:mID="271" v:groupContext="shape" transform="translate(3491.68,2751.23) rotate(90)">
				<title>Center Drag Circle.4681</title>
				<v:userDefs>
					<v:ud v:nameU="visVersion" v:val="VT0(15):26"/>
				</v:userDefs>
				<path d="M-9 3168 A9 9 0 0 1 9 3168 A9 9 0 1 1 -9 3168 Z" class="st1"/>
			</g>
			<g id="shape272-147" v:mID="272" v:groupContext="shape" transform="translate(323.72,-326.36)">
				<title>Center Drag Circle.4694</title>
				<v:userDefs>
					<v:ud v:nameU="visVersion" v:val="VT0(15):26"/>
				</v:userDefs>
				<path d="M-9 3168 A9 9 0 0 1 9 3168 A9 9 0 1 1 -9 3168 Z" class="st1"/>
			</g>
			<g id="shape273-149" v:mID="273" v:groupContext="shape" transform="translate(3581.68,2841.97) rotate(90)">
				<title>Center Drag Circle.4705</title>
				<v:userDefs>
					<v:ud v:nameU="visVersion" v:val="VT0(15):26"/>
				</v:userDefs>
				<path d="M-9 3168 A9 9 0 0 1 9 3168 A9 9 0 1 1 -9 3168 Z" class="st1"/>
			</g>
			<g id="shape274-151" v:mID="274" v:groupContext="shape" transform="translate(80.8183,-718.875)">
				<title>Circle.4720</title>
				<v:userDefs>
					<v:ud v:nameU="visVersion" v:val="VT0(15):26"/>
				</v:userDefs>
				<path d="M0 3114 A54 54 0 0 1 108 3114 A54 54 0 1 1 0 3114 Z" class="st2"/>
			</g>
			<g id="shape275-153" v:mID="275" v:groupContext="shape" transform="translate(549.596,-723.375)">
				<title>Circle.4721</title>
				<v:userDefs>
					<v:ud v:nameU="visVersion" v:val="VT0(15):26"/>
				</v:userDefs>
				<path d="M0 3114 A54 54 0 0 1 108 3114 A54 54 0 1 1 0 3114 Z" class="st2"/>
			</g>
			<g id="shape276-155" v:mID="276" v:groupContext="shape" transform="translate(82.125,-390.375)">
				<title>Circle.4722</title>
				<v:userDefs>
					<v:ud v:nameU="visVersion" v:val="VT0(15):26"/>
				</v:userDefs>
				<path d="M0 3114 A54 54 0 0 1 108 3114 A54 54 0 1 1 0 3114 Z" class="st2"/>
			</g>
			<g id="shape277-157" v:mID="277" v:groupContext="shape" transform="translate(80.427,-255.375)">
				<title>Circle.4728</title>
				<v:userDefs>
					<v:ud v:nameU="visVersion" v:val="VT0(15):26"/>
				</v:userDefs>
				<path d="M0 3114 A54 54 0 0 1 108 3114 A54 54 0 1 1 0 3114 Z" class="st2"/>
			</g>
			<g id="shape278-159" v:mID="278" v:groupContext="shape" transform="translate(81.3366,-120.375)">
				<title>Circle.4730</title>
				<v:userDefs>
					<v:ud v:nameU="visVersion" v:val="VT0(15):26"/>
				</v:userDefs>
				<path d="M0 3114 A54 54 0 0 1 108 3114 A54 54 0 1 1 0 3114 Z" class="st2"/>
			</g>
			<g id="shape279-161" v:mID="279" v:groupContext="shape" transform="translate(550.456,-390.375)">
				<title>Circle.4731</title>
				<v:userDefs>
					<v:ud v:nameU="visVersion" v:val="VT0(15):26"/>
				</v:userDefs>
				<path d="M0 3114 A54 54 0 0 1 108 3114 A54 54 0 1 1 0 3114 Z" class="st2"/>
			</g>
			<g id="shape280-163" v:mID="280" v:groupContext="shape" transform="translate(548.758,-255.375)">
				<title>Circle.4734</title>
				<v:userDefs>
					<v:ud v:nameU="visVersion" v:val="VT0(15):26"/>
				</v:userDefs>
				<path d="M0 3114 A54 54 0 0 1 108 3114 A54 54 0 1 1 0 3114 Z" class="st2"/>
			</g>
			<g id="shape281-165" v:mID="281" v:groupContext="shape" transform="translate(549.668,-120.375)">
				<title>Circle.4736</title>
				<v:userDefs>
					<v:ud v:nameU="visVersion" v:val="VT0(15):26"/>
				</v:userDefs>
				<path d="M0 3114 A54 54 0 0 1 108 3114 A54 54 0 1 1 0 3114 Z" class="st2"/>
			</g>
			<g id="shape282-167" v:mID="282" v:groupContext="shape">
				<title>Sheet.282</title>
				<path d="M54 3168 L0 3114 L0 2296.12 L54.09 2242.12 L215.68 2242.12 L261.21 2446.7 L477.21 2446.7 L522.8 2242.12
							 L684.39 2242.12 L738 2296.12 L738 3114 L684.18 3167.77 L522.6 3167.77 L449.53 3112.87 L287.95 3112.87
							 L215.54 3167.77 L54 3168 Z" class="st3"/>
			</g>
		</g>
		<g id="group283-169" transform="translate(611.916,4412.32) rotate(180)" v:mID="283" v:groupContext="group">
			<title>Sheet.283</title>
			<g id="shape284-170" v:mID="284" v:groupContext="shape" transform="translate(3195,2983.44) rotate(90)">
				<title>Center Drag Circle.4033</title>
				<v:userDefs>
					<v:ud v:nameU="visVersion" v:val="VT0(15):26"/>
				</v:userDefs>
				<path d="M-9 3168 A9 9 0 0 1 9 3168 A9 9 0 1 1 -9 3168 Z" class="st4"/>
			</g>
			<g id="shape285-172" v:mID="285" v:groupContext="shape" transform="translate(3195,3136.48) rotate(90)">
				<title>Center Drag Circle.4034</title>
				<v:userDefs>
					<v:ud v:nameU="visVersion" v:val="VT0(15):26"/>
				</v:userDefs>
				<path d="M-9 3168 A9 9 0 0 1 9 3168 A9 9 0 1 1 -9 3168 Z" class="st4"/>
			</g>
			<g id="shape286-174" v:mID="286" v:groupContext="shape" transform="translate(-2709.33,2980.88) rotate(-90) scale(-1,1)">
				<title>Center Drag Circle.4035</title>
				<v:userDefs>
					<v:ud v:nameU="visVersion" v:val="VT0(15):26"/>
				</v:userDefs>
				<path d="M-9 3168 A9 9 0 0 1 9 3168 A9 9 0 1 1 -9 3168 Z" class="st4"/>
			</g>
			<g id="shape287-176" v:mID="287" v:groupContext="shape" transform="translate(-2709.33,3133.91) rotate(-90) scale(-1,1)">
				<title>Center Drag Circle.4036</title>
				<v:userDefs>
					<v:ud v:nameU="visVersion" v:val="VT0(15):26"/>
				</v:userDefs>
				<path d="M-9 3168 A9 9 0 0 1 9 3168 A9 9 0 1 1 -9 3168 Z" class="st4"/>
			</g>
			<g id="shape288-178" v:mID="288" v:groupContext="shape" transform="translate(3455.29,2587.78) rotate(90)">
				<title>Center Drag Circle.4039</title>
				<v:userDefs>
					<v:ud v:nameU="visVersion" v:val="VT0(15):26"/>
				</v:userDefs>
				<path d="M-9 3168 A9 9 0 0 1 9 3168 A9 9 0 1 1 -9 3168 Z" class="st4"/>
			</g>
			<g id="shape289-180" v:mID="289" v:groupContext="shape" transform="translate(3365.29,2587.78) rotate(90)">
				<title>Center Drag Circle.4040</title>
				<v:userDefs>
					<v:ud v:nameU="visVersion" v:val="VT0(15):26"/>
				</v:userDefs>
				<path d="M-9 3168 A9 9 0 0 1 9 3168 A9 9 0 1 1 -9 3168 Z" class="st4"/>
			</g>
			<g id="shape290-182" v:mID="290" v:groupContext="shape" transform="translate(197.333,-489.815)">
				<title>Center Drag Circle.4041</title>
				<v:userDefs>
					<v:ud v:nameU="visVersion" v:val="VT0(15):26"/>
				</v:userDefs>
				<path d="M-9 3168 A9 9 0 0 1 9 3168 A9 9 0 1 1 -9 3168 Z" class="st4"/>
			</g>
			<g id="shape291-184" v:mID="291" v:groupContext="shape" transform="translate(3455.29,2678.52) rotate(90)">
				<title>Center Drag Circle.4042</title>
				<v:userDefs>
					<v:ud v:nameU="visVersion" v:val="VT0(15):26"/>
				</v:userDefs>
				<path d="M-9 3168 A9 9 0 0 1 9 3168 A9 9 0 1 1 -9 3168 Z" class="st4"/>
			</g>
			<g id="shape292-186" v:mID="292" v:groupContext="shape" transform="translate(3455.36,3058.03) rotate(90)">
				<title>Center Drag Circle.4043</title>
				<v:userDefs>
					<v:ud v:nameU="visVersion" v:val="VT0(15):26"/>
				</v:userDefs>
				<path d="M-9 3168 A9 9 0 0 1 9 3168 A9 9 0 1 1 -9 3168 Z" class="st4"/>
			</g>
			<g id="shape293-188" v:mID="293" v:groupContext="shape" transform="translate(3365.36,3058.03) rotate(90)">
				<title>Center Drag Circle.4044</title>
				<v:userDefs>
					<v:ud v:nameU="visVersion" v:val="VT0(15):26"/>
				</v:userDefs>
				<path d="M-9 3168 A9 9 0 0 1 9 3168 A9 9 0 1 1 -9 3168 Z" class="st4"/>
			</g>
			<g id="shape294-190" v:mID="294" v:groupContext="shape" transform="translate(197.403,-19.5652)">
				<title>Center Drag Circle.4045</title>
				<v:userDefs>
					<v:ud v:nameU="visVersion" v:val="VT0(15):26"/>
				</v:userDefs>
				<path d="M-9 3168 A9 9 0 0 1 9 3168 A9 9 0 1 1 -9 3168 Z" class="st4"/>
			</g>
			<g id="shape295-192" v:mID="295" v:groupContext="shape" transform="translate(3455.36,3148.77) rotate(90)">
				<title>Center Drag Circle.4046</title>
				<v:userDefs>
					<v:ud v:nameU="visVersion" v:val="VT0(15):26"/>
				</v:userDefs>
				<path d="M-9 3168 A9 9 0 0 1 9 3168 A9 9 0 1 1 -9 3168 Z" class="st4"/>
			</g>
			<g id="shape296-194" v:mID="296" v:groupContext="shape" transform="translate(3455.51,2823.13) rotate(90)">
				<title>Center Drag Circle.4047</title>
				<v:userDefs>
					<v:ud v:nameU="visVersion" v:val="VT0(15):26"/>
				</v:userDefs>
				<path d="M-9 3168 A9 9 0 0 1 9 3168 A9 9 0 1 1 -9 3168 Z" class="st4"/>
			</g>
			<g id="shape297-196" v:mID="297" v:groupContext="shape" transform="translate(3365.51,2823.13) rotate(90)">
				<title>Center Drag Circle.4048</title>
				<v:userDefs>
					<v:ud v:nameU="visVersion" v:val="VT0(15):26"/>
				</v:userDefs>
				<path d="M-9 3168 A9 9 0 0 1 9 3168 A9 9 0 1 1 -9 3168 Z" class="st4"/>
			</g>
			<g id="shape298-198" v:mID="298" v:groupContext="shape" transform="translate(197.553,-254.465)">
				<title>Center Drag Circle.4049</title>
				<v:userDefs>
					<v:ud v:nameU="visVersion" v:val="VT0(15):26"/>
				</v:userDefs>
				<path d="M-9 3168 A9 9 0 0 1 9 3168 A9 9 0 1 1 -9 3168 Z" class="st4"/>
			</g>
			<g id="shape299-200" v:mID="299" v:groupContext="shape" transform="translate(3455.51,2913.87) rotate(90)">
				<title>Center Drag Circle.4050</title>
				<v:userDefs>
					<v:ud v:nameU="visVersion" v:val="VT0(15):26"/>
				</v:userDefs>
				<path d="M-9 3168 A9 9 0 0 1 9 3168 A9 9 0 1 1 -9 3168 Z" class="st4"/>
			</g>
			<g id="shape300-202" v:mID="300" v:groupContext="shape" transform="translate(187.132,-1039.16)">
				<title>Center Drag Circle.47</title>
				<v:userDefs>
					<v:ud v:nameU="visVersion" v:val="VT0(15):26"/>
				</v:userDefs>
				<path d="M-7.09 3168 A7.08661 7.08661 0 0 1 7.09 3168 A7.08661 7.08661 0 1 1 -7.09 3168 Z" class="st5"/>
			</g>
			<g id="shape301-204" v:mID="301" v:groupContext="shape" transform="translate(300.468,-1039)">
				<title>Center Drag Circle.48</title>
				<v:userDefs>
					<v:ud v:nameU="visVersion" v:val="VT0(15):26"/>
				</v:userDefs>
				<path d="M-7.09 3168 A7.08661 7.08661 0 0 1 7.09 3168 A7.08661 7.08661 0 1 1 -7.09 3168 Z" class="st5"/>
			</g>
			<g id="shape302-206" v:mID="302" v:groupContext="shape" transform="translate(186.901,-671.012)">
				<title>Center Drag Circle.63</title>
				<v:userDefs>
					<v:ud v:nameU="visVersion" v:val="VT0(15):26"/>
				</v:userDefs>
				<path d="M-7.09 3168 A7.08661 7.08661 0 0 1 7.09 3168 A7.08661 7.08661 0 1 1 -7.09 3168 Z" class="st5"/>
			</g>
			<g id="shape303-208" v:mID="303" v:groupContext="shape" transform="translate(300.236,-670.857)">
				<title>Center Drag Circle.64</title>
				<v:userDefs>
					<v:ud v:nameU="visVersion" v:val="VT0(15):26"/>
				</v:userDefs>
				<path d="M-7.09 3168 A7.08661 7.08661 0 0 1 7.09 3168 A7.08661 7.08661 0 1 1 -7.09 3168 Z" class="st5"/>
			</g>
			<g id="shape304-210" v:mID="304" v:groupContext="shape">
				<title>Sheet.304</title>
				<path d="M148.81 2107.57 L135.05 2518.59 L90.05 2878.59 L85.55 2878.59 L0 2947.29 L0 3168 L485.83 3168 L485.67 2944.93
							 L400.55 2878.59 L395.83 2878.82 L351.05 2518.59 L337.03 2107.57 L148.81 2107.57 Z" class="st3"/>
			</g>
		</g>
		<g id="group305-212" transform="translate(-2052,2196) rotate(-90)" v:mID="305" v:groupContext="group">
			<title>Sheet.305</title>
			<g id="shape306-213" v:mID="306" v:groupContext="shape" transform="translate(2354.64,716.511) rotate(45)">
				<title>Circle.761</title>
				<v:userDefs>
					<v:ud v:nameU="visVersion" v:val="VT0(15):26"/>
				</v:userDefs>
				<path d="M0 3087 A81 81 0 0 1 162 3087 A81 81 0 1 1 0 3087 Z" class="st5"/>
			</g>
			<g id="shape307-215" v:mID="307" v:groupContext="shape" transform="translate(2532.83,792.878) rotate(45)">
				<title>Circle.762</title>
				<v:userDefs>
					<v:ud v:nameU="visVersion" v:val="VT0(15):26"/>
				</v:userDefs>
				<path d="M0 3159 A9 9 0 0 1 18 3159 A9 9 0 1 1 0 3159 Z" class="st5"/>
			</g>
			<g id="shape308-217" v:mID="308" v:groupContext="shape" transform="translate(2380.1,640.143) rotate(45)">
				<title>Circle.763</title>
				<v:userDefs>
					<v:ud v:nameU="visVersion" v:val="VT0(15):26"/>
				</v:userDefs>
				<path d="M0 3159 A9 9 0 0 1 18 3159 A9 9 0 1 1 0 3159 Z" class="st5"/>
			</g>
			<g id="shape309-219" v:mID="309" v:groupContext="shape" transform="translate(454.077,-265.375)">
				<title>Center Drag Circle.766</title>
				<v:userDefs>
					<v:ud v:nameU="visVersion" v:val="VT0(15):26"/>
				</v:userDefs>
				<path d="M-27 3168 A27 27 0 0 1 27 3168 A27 27 0 1 1 -27 3168 Z" class="st5"/>
			</g>
			<g id="shape310-221" v:mID="310" v:groupContext="shape" transform="translate(454.077,-157.375)">
				<title>Center Drag Circle.768</title>
				<v:userDefs>
					<v:ud v:nameU="visVersion" v:val="VT0(15):26"/>
				</v:userDefs>
				<path d="M-27 3168 A27 27 0 0 1 27 3168 A27 27 0 1 1 -27 3168 Z" class="st5"/>
			</g>
			<g id="shape311-223" v:mID="311" v:groupContext="shape" transform="translate(94.0773,-369.062)">
				<title>Circle.771</title>
				<v:userDefs>
					<v:ud v:nameU="visVersion" v:val="VT0(15):26"/>
				</v:userDefs>
				<path d="M0 3150 A18 18 0 0 1 36 3150 A18 18 0 1 1 0 3150 Z" class="st5"/>
			</g>
			<g id="shape312-225" v:mID="312" v:groupContext="shape" transform="translate(310.077,-378.062)">
				<title>Circle.773</title>
				<v:userDefs>
					<v:ud v:nameU="visVersion" v:val="VT0(15):26"/>
				</v:userDefs>
				<path d="M0 3159 A9 9 0 0 1 18 3159 A9 9 0 1 1 0 3159 Z" class="st5"/>
			</g>
			<g id="shape313-227" v:mID="313" v:groupContext="shape" transform="translate(463.077,-378.062)">
				<title>Circle.774</title>
				<v:userDefs>
					<v:ud v:nameU="visVersion" v:val="VT0(15):26"/>
				</v:userDefs>
				<path d="M0 3159 A9 9 0 0 1 18 3159 A9 9 0 1 1 0 3159 Z" class="st5"/>
			</g>
			<g id="shape314-229" v:mID="314" v:groupContext="shape" transform="translate(27,-274.023)">
				<title>Circle.783</title>
				<v:userDefs>
					<v:ud v:nameU="visVersion" v:val="VT0(15):26"/>
				</v:userDefs>
				<path d="M0 3159 A9 9 0 0 1 18 3159 A9 9 0 1 1 0 3159 Z" class="st5"/>
			</g>
			<g id="shape315-231" v:mID="315" v:groupContext="shape" transform="translate(27,-202.023)">
				<title>Circle.784</title>
				<v:userDefs>
					<v:ud v:nameU="visVersion" v:val="VT0(15):26"/>
				</v:userDefs>
				<path d="M0 3159 A9 9 0 0 1 18 3159 A9 9 0 1 1 0 3159 Z" class="st5"/>
			</g>
			<g id="shape316-233" v:mID="316" v:groupContext="shape" transform="translate(27,-129.273)">
				<title>Circle.786</title>
				<v:userDefs>
					<v:ud v:nameU="visVersion" v:val="VT0(15):26"/>
				</v:userDefs>
				<path d="M0 3159 A9 9 0 0 1 18 3159 A9 9 0 1 1 0 3159 Z" class="st5"/>
			</g>
			<g id="shape317-235" v:mID="317" v:groupContext="shape" transform="translate(94.0773,-17.5)">
				<title>Circle.788</title>
				<v:userDefs>
					<v:ud v:nameU="visVersion" v:val="VT0(15):26"/>
				</v:userDefs>
				<path d="M0 3150 A18 18 0 0 1 36 3150 A18 18 0 1 1 0 3150 Z" class="st5"/>
			</g>
			<g id="shape318-237" v:mID="318" v:groupContext="shape" transform="translate(981,-35.3602)">
				<title>Center Drag Circle.791</title>
				<v:userDefs>
					<v:ud v:nameU="visVersion" v:val="VT0(15):26"/>
				</v:userDefs>
				<path d="M-9 3168 A9 9 0 0 1 9 3168 A9 9 0 1 1 -9 3168 Z" class="st5"/>
			</g>
			<g id="shape319-239" v:mID="319" v:groupContext="shape" transform="translate(328.125,-202.485)">
				<title>Circle.796</title>
				<v:userDefs>
					<v:ud v:nameU="visVersion" v:val="VT0(15):26"/>
				</v:userDefs>
				<path d="M0 3159 A9 9 0 0 1 18 3159 A9 9 0 1 1 0 3159 Z" class="st5"/>
			</g>
			<g id="shape320-241" v:mID="320" v:groupContext="shape" transform="translate(112.125,-202.485)">
				<title>Circle.797</title>
				<v:userDefs>
					<v:ud v:nameU="visVersion" v:val="VT0(15):26"/>
				</v:userDefs>
				<path d="M0 3159 A9 9 0 0 1 18 3159 A9 9 0 1 1 0 3159 Z" class="st5"/>
			</g>
			<g id="shape321-243" v:mID="321" v:groupContext="shape" transform="translate(3833.58,2843.98) rotate(90)">
				<title>Circle.800</title>
				<v:userDefs>
					<v:ud v:nameU="visVersion" v:val="VT0(15):26"/>
				</v:userDefs>
				<path d="M0 3159 A9 9 0 0 1 18 3159 A9 9 0 1 1 0 3159 Z" class="st5"/>
			</g>
			<g id="shape322-245" v:mID="322" v:groupContext="shape" transform="translate(3761.58,2843.98) rotate(90)">
				<title>Circle.802</title>
				<v:userDefs>
					<v:ud v:nameU="visVersion" v:val="VT0(15):26"/>
				</v:userDefs>
				<path d="M0 3159 A9 9 0 0 1 18 3159 A9 9 0 1 1 0 3159 Z" class="st5"/>
			</g>
			<g id="shape323-247" v:mID="323" v:groupContext="shape" transform="translate(3977.58,2843.98) rotate(90)">
				<title>Circle.806</title>
				<v:userDefs>
					<v:ud v:nameU="visVersion" v:val="VT0(15):26"/>
				</v:userDefs>
				<path d="M0 3159 A9 9 0 0 1 18 3159 A9 9 0 1 1 0 3159 Z" class="st5"/>
			</g>
			<g id="shape324-249" v:mID="324" v:groupContext="shape" transform="translate(3905.58,2843.98) rotate(90)">
				<title>Circle.808</title>
				<v:userDefs>
					<v:ud v:nameU="visVersion" v:val="VT0(15):26"/>
				</v:userDefs>
				<path d="M0 3159 A9 9 0 0 1 18 3159 A9 9 0 1 1 0 3159 Z" class="st5"/>
			</g>
			<g id="shape325-251" v:mID="325" v:groupContext="shape" transform="translate(373,-264.86)">
				<title>Center Drag Circle.814</title>
				<v:userDefs>
					<v:ud v:nameU="visVersion" v:val="VT0(15):26"/>
				</v:userDefs>
				<path d="M-27 3168 A27 27 0 0 1 27 3168 A27 27 0 1 1 -27 3168 Z" class="st5"/>
			</g>
			<g id="shape326-253" v:mID="326" v:groupContext="shape" transform="translate(373,-156.86)">
				<title>Center Drag Circle.816</title>
				<v:userDefs>
					<v:ud v:nameU="visVersion" v:val="VT0(15):26"/>
				</v:userDefs>
				<path d="M-27 3168 A27 27 0 0 1 27 3168 A27 27 0 1 1 -27 3168 Z" class="st5"/>
			</g>
			<g id="shape327-255" v:mID="327" v:groupContext="shape">
				<title>Sheet.327</title>
				<path d="M76.08 2753.94 A9 9 0 0 1 85.08 2744.94 L499.08 2744.94 L512.71 2744.94 A9.29006 7.45227 0 0 1 522 2752.39
							 L562.08 2816.94 L847.07 2817.1 A7.50749 8.87526 0 0 1 854.58 2825.98 L854.58 2879.98 A8.57727 9 0 0
							 1 846 2888.98 L567.25 2947.33 L566.58 2947.48 L562.08 2947.48 L562.08 2956.63 L1009.83 3010.63 A6.75
							 7.34949 0 0 1 1016.58 3017.97 L1016.58 3160.65 A8.01477 7.34949 0 0 1 1008.56 3168 L885.94 3168 L577.12
							 3168 L202.5 3168 L83.19 3168 A7.34949 7.34949 0 0 1 75.84 3160.65 L75.84 3096.38 L9 3096.64 A9 9 0 0
							 1 -0 3087.64 L0 2826.08 A9 9 0 0 1 9 2817.08 L76.08 2816.94 L76.08 2753.94 Z" class="st6"/>
			</g>
		</g>
	</g>
</svg>
